<svg width="137" height="178" viewBox="0 0 137 178" fill="none" xmlns="http://www.w3.org/2000/svg">
<path d="M73.8194 40.9096C80.2538 41.3439 91.3923 45.0774 92.4487 35.502C88.6325 20.9499 75.9548 11.9385 63.4455 4.60463L61.8426 2.04094C68.573 -1.27576 76.2097 1.08129 82.8127 3.19317C112.326 12.3762 133.123 38.598 136.156 68.795C137.272 83.2525 134.021 97.7662 126.867 110.262C118.215 124.587 103.424 134.726 86.926 137.91C75.6601 139.605 64.4578 138.586 52.8548 136.926C49.1207 136.586 45.1544 137.283 44.8585 141.034C45.5098 157.565 60.8879 166.671 73.3972 174.005C73.7979 174.646 75.4009 177.209 74.3672 176.964C53.9026 180.845 34.4534 168.044 19.8357 153.113C8.88836 141.237 3.00476 126.195 1.08747 110.455C-0.998317 93.0382 3.75109 76.6964 13.8375 63.258C27.1525 45.1265 51.4786 36.157 73.8194 40.9096Z" fill="#255894"/>
</svg>
