<svg width="20" height="22" viewBox="0 0 20 22" fill="none" xmlns="http://www.w3.org/2000/svg">
<path d="M2.41667 21.8332C1.82083 21.8332 1.31076 21.621 0.886458 21.1967C0.462153 20.7724 0.25 20.2623 0.25 19.6665V4.49984C0.25 3.904 0.462153 3.39393 0.886458 2.96963C1.31076 2.54532 1.82083 2.33317 2.41667 2.33317H3.5V1.24984C3.5 0.942893 3.60382 0.685601 3.81146 0.477962C4.0191 0.270323 4.27639 0.166504 4.58333 0.166504C4.89028 0.166504 5.14757 0.270323 5.35521 0.477962C5.56285 0.685601 5.66667 0.942893 5.66667 1.24984V2.33317H14.3333V1.24984C14.3333 0.942893 14.4372 0.685601 14.6448 0.477962C14.8524 0.270323 15.1097 0.166504 15.4167 0.166504C15.7236 0.166504 15.9809 0.270323 16.1885 0.477962C16.3962 0.685601 16.5 0.942893 16.5 1.24984V2.33317H17.5833C18.1792 2.33317 18.6892 2.54532 19.1135 2.96963C19.5378 3.39393 19.75 3.904 19.75 4.49984V19.6665C19.75 20.2623 19.5378 20.7724 19.1135 21.1967C18.6892 21.621 18.1792 21.8332 17.5833 21.8332H2.41667ZM2.41667 19.6665H17.5833V8.83317H2.41667V19.6665ZM10 13.1665C9.69306 13.1665 9.43576 13.0627 9.22813 12.855C9.02049 12.6474 8.91667 12.3901 8.91667 12.0832C8.91667 11.7762 9.02049 11.5189 9.22813 11.3113C9.43576 11.1037 9.69306 10.9998 10 10.9998C10.3069 10.9998 10.5642 11.1037 10.7719 11.3113C10.9795 11.5189 11.0833 11.7762 11.0833 12.0832C11.0833 12.3901 10.9795 12.6474 10.7719 12.855C10.5642 13.0627 10.3069 13.1665 10 13.1665ZM5.66667 13.1665C5.35972 13.1665 5.10243 13.0627 4.89479 12.855C4.68715 12.6474 4.58333 12.3901 4.58333 12.0832C4.58333 11.7762 4.68715 11.5189 4.89479 11.3113C5.10243 11.1037 5.35972 10.9998 5.66667 10.9998C5.97361 10.9998 6.2309 11.1037 6.43854 11.3113C6.64618 11.5189 6.75 11.7762 6.75 12.0832C6.75 12.3901 6.64618 12.6474 6.43854 12.855C6.2309 13.0627 5.97361 13.1665 5.66667 13.1665ZM14.3333 13.1665C14.0264 13.1665 13.7691 13.0627 13.5615 12.855C13.3538 12.6474 13.25 12.3901 13.25 12.0832C13.25 11.7762 13.3538 11.5189 13.5615 11.3113C13.7691 11.1037 14.0264 10.9998 14.3333 10.9998C14.6403 10.9998 14.8976 11.1037 15.1052 11.3113C15.3128 11.5189 15.4167 11.7762 15.4167 12.0832C15.4167 12.3901 15.3128 12.6474 15.1052 12.855C14.8976 13.0627 14.6403 13.1665 14.3333 13.1665ZM10 17.4998C9.69306 17.4998 9.43576 17.396 9.22813 17.1884C9.02049 16.9807 8.91667 16.7234 8.91667 16.4165C8.91667 16.1096 9.02049 15.8523 9.22813 15.6446C9.43576 15.437 9.69306 15.3332 10 15.3332C10.3069 15.3332 10.5642 15.437 10.7719 15.6446C10.9795 15.8523 11.0833 16.1096 11.0833 16.4165C11.0833 16.7234 10.9795 16.9807 10.7719 17.1884C10.5642 17.396 10.3069 17.4998 10 17.4998ZM5.66667 17.4998C5.35972 17.4998 5.10243 17.396 4.89479 17.1884C4.68715 16.9807 4.58333 16.7234 4.58333 16.4165C4.58333 16.1096 4.68715 15.8523 4.89479 15.6446C5.10243 15.437 5.35972 15.3332 5.66667 15.3332C5.97361 15.3332 6.2309 15.437 6.43854 15.6446C6.64618 15.8523 6.75 16.1096 6.75 16.4165C6.75 16.7234 6.64618 16.9807 6.43854 17.1884C6.2309 17.396 5.97361 17.4998 5.66667 17.4998ZM14.3333 17.4998C14.0264 17.4998 13.7691 17.396 13.5615 17.1884C13.3538 16.9807 13.25 16.7234 13.25 16.4165C13.25 16.1096 13.3538 15.8523 13.5615 15.6446C13.7691 15.437 14.0264 15.3332 14.3333 15.3332C14.6403 15.3332 14.8976 15.437 15.1052 15.6446C15.3128 15.8523 15.4167 16.1096 15.4167 16.4165C15.4167 16.7234 15.3128 16.9807 15.1052 17.1884C14.8976 17.396 14.6403 17.4998 14.3333 17.4998Z" fill="#3B87DD"/>
</svg>
