<svg width="22" height="16" viewBox="0 0 22 16" fill="none" xmlns="http://www.w3.org/2000/svg">
<path d="M0.916504 14.4165V11.6665C0.916504 11.1471 1.09602 10.7116 1.45505 10.3603C1.81407 10.0089 2.24567 9.83317 2.74984 9.83317H5.75192C6.05748 9.83317 6.34775 9.90956 6.62275 10.0623C6.89775 10.2151 7.11928 10.4214 7.28734 10.6811C7.73039 11.2769 8.27657 11.7429 8.92588 12.079C9.57519 12.4151 10.2665 12.5832 10.9998 12.5832C11.7484 12.5832 12.4474 12.4151 13.0967 12.079C13.746 11.7429 14.2846 11.2769 14.7123 10.6811C14.9109 10.4214 15.1439 10.2151 15.4113 10.0623C15.6787 9.90956 15.9575 9.83317 16.2478 9.83317H19.2498C19.7693 9.83317 20.2047 10.0089 20.5561 10.3603C20.9075 10.7116 21.0832 11.1471 21.0832 11.6665V14.4165C21.0832 14.6762 20.9953 14.8939 20.8196 15.0696C20.6439 15.2453 20.4262 15.3332 20.1665 15.3332H15.5832C15.3234 15.3332 15.1057 15.2453 14.93 15.0696C14.7544 14.8939 14.6665 14.6762 14.6665 14.4165V13.2478C14.1318 13.6297 13.555 13.92 12.9363 14.1186C12.3175 14.3172 11.6721 14.4165 10.9998 14.4165C10.3429 14.4165 9.70123 14.3134 9.07484 14.1071C8.44845 13.9009 7.86789 13.6068 7.33317 13.2248V14.4165C7.33317 14.6762 7.24532 14.8939 7.06963 15.0696C6.89394 15.2453 6.67623 15.3332 6.4165 15.3332H1.83317C1.57345 15.3332 1.35574 15.2453 1.18005 15.0696C1.00435 14.8939 0.916504 14.6762 0.916504 14.4165ZM10.9998 11.6665C10.4193 11.6665 9.86928 11.5328 9.34984 11.2655C8.83039 10.9981 8.39498 10.6276 8.04359 10.154C7.78387 9.77206 7.45921 9.47032 7.06963 9.2488C6.68005 9.02727 6.25609 8.9165 5.79775 8.9165C6.13387 8.35123 6.84428 7.90435 7.929 7.57588C9.01373 7.24741 10.0373 7.08317 10.9998 7.08317C11.9623 7.08317 12.9859 7.24741 14.0707 7.57588C15.1554 7.90435 15.8658 8.35123 16.2019 8.9165C15.7589 8.9165 15.3387 9.02727 14.9415 9.2488C14.5443 9.47032 14.2158 9.77206 13.9561 10.154C13.62 10.6429 13.1922 11.0172 12.6728 11.2769C12.1533 11.5366 11.5957 11.6665 10.9998 11.6665ZM3.6665 8.9165C2.90262 8.9165 2.25331 8.64914 1.71859 8.11442C1.18387 7.5797 0.916504 6.93039 0.916504 6.1665C0.916504 5.38734 1.18387 4.73421 1.71859 4.20713C2.25331 3.68005 2.90262 3.4165 3.6665 3.4165C4.44567 3.4165 5.0988 3.68005 5.62588 4.20713C6.15296 4.73421 6.4165 5.38734 6.4165 6.1665C6.4165 6.93039 6.15296 7.5797 5.62588 8.11442C5.0988 8.64914 4.44567 8.9165 3.6665 8.9165ZM18.3332 8.9165C17.5693 8.9165 16.92 8.64914 16.3853 8.11442C15.8505 7.5797 15.5832 6.93039 15.5832 6.1665C15.5832 5.38734 15.8505 4.73421 16.3853 4.20713C16.92 3.68005 17.5693 3.4165 18.3332 3.4165C19.1123 3.4165 19.7655 3.68005 20.2925 4.20713C20.8196 4.73421 21.0832 5.38734 21.0832 6.1665C21.0832 6.93039 20.8196 7.5797 20.2925 8.11442C19.7655 8.64914 19.1123 8.9165 18.3332 8.9165ZM10.9998 6.1665C10.2359 6.1665 9.58664 5.89914 9.05192 5.36442C8.5172 4.8297 8.24984 4.18039 8.24984 3.4165C8.24984 2.63734 8.5172 1.98421 9.05192 1.45713C9.58664 0.930046 10.2359 0.666504 10.9998 0.666504C11.779 0.666504 12.4321 0.930046 12.9592 1.45713C13.4863 1.98421 13.7498 2.63734 13.7498 3.4165C13.7498 4.18039 13.4863 4.8297 12.9592 5.36442C12.4321 5.89914 11.779 6.1665 10.9998 6.1665Z" fill="white"/>
</svg>
