<svg width="22" height="16" viewBox="0 0 22 16" fill="none" xmlns="http://www.w3.org/2000/svg">
<path d="M0.916748 14.4165V11.6665C0.916748 11.1471 1.09626 10.7116 1.45529 10.3603C1.81432 10.0089 2.24591 9.83317 2.75008 9.83317H5.75217C6.05772 9.83317 6.348 9.90956 6.623 10.0623C6.898 10.2151 7.11953 10.4214 7.28758 10.6811C7.73064 11.2769 8.27682 11.7429 8.92612 12.079C9.57543 12.4151 10.2667 12.5832 11.0001 12.5832C11.7487 12.5832 12.4477 12.4151 13.097 12.079C13.7463 11.7429 14.2848 11.2769 14.7126 10.6811C14.9112 10.4214 15.1442 10.2151 15.4115 10.0623C15.6789 9.90956 15.9577 9.83317 16.248 9.83317H19.2501C19.7695 9.83317 20.2049 10.0089 20.5563 10.3603C20.9077 10.7116 21.0834 11.1471 21.0834 11.6665V14.4165C21.0834 14.6762 20.9956 14.8939 20.8199 15.0696C20.6442 15.2453 20.4265 15.3332 20.1667 15.3332H15.5834C15.3237 15.3332 15.106 15.2453 14.9303 15.0696C14.7546 14.8939 14.6667 14.6762 14.6667 14.4165V13.2478C14.132 13.6297 13.5553 13.92 12.9365 14.1186C12.3178 14.3172 11.6723 14.4165 11.0001 14.4165C10.3431 14.4165 9.70147 14.3134 9.07508 14.1071C8.44869 13.9009 7.86814 13.6068 7.33342 13.2248V14.4165C7.33342 14.6762 7.24557 14.8939 7.06987 15.0696C6.89418 15.2453 6.67647 15.3332 6.41675 15.3332H1.83341C1.57369 15.3332 1.35598 15.2453 1.18029 15.0696C1.0046 14.8939 0.916748 14.6762 0.916748 14.4165ZM11.0001 11.6665C10.4195 11.6665 9.86953 11.5328 9.35008 11.2655C8.83064 10.9981 8.39522 10.6276 8.04383 10.154C7.78411 9.77206 7.45946 9.47032 7.06987 9.2488C6.68029 9.02727 6.25633 8.9165 5.798 8.9165C6.13411 8.35123 6.84453 7.90435 7.92925 7.57588C9.01397 7.24741 10.0376 7.08317 11.0001 7.08317C11.9626 7.08317 12.9862 7.24741 14.0709 7.57588C15.1556 7.90435 15.8661 8.35123 16.2022 8.9165C15.7591 8.9165 15.339 9.02727 14.9417 9.2488C14.5445 9.47032 14.2161 9.77206 13.9563 10.154C13.6202 10.6429 13.1924 11.0172 12.673 11.2769C12.1536 11.5366 11.5959 11.6665 11.0001 11.6665ZM3.66675 8.9165C2.90286 8.9165 2.25355 8.64914 1.71883 8.11442C1.18411 7.5797 0.916748 6.93039 0.916748 6.1665C0.916748 5.38734 1.18411 4.73421 1.71883 4.20713C2.25355 3.68005 2.90286 3.4165 3.66675 3.4165C4.44591 3.4165 5.09904 3.68005 5.62612 4.20713C6.15321 4.73421 6.41675 5.38734 6.41675 6.1665C6.41675 6.93039 6.15321 7.5797 5.62612 8.11442C5.09904 8.64914 4.44591 8.9165 3.66675 8.9165ZM18.3334 8.9165C17.5695 8.9165 16.9202 8.64914 16.3855 8.11442C15.8508 7.5797 15.5834 6.93039 15.5834 6.1665C15.5834 5.38734 15.8508 4.73421 16.3855 4.20713C16.9202 3.68005 17.5695 3.4165 18.3334 3.4165C19.1126 3.4165 19.7657 3.68005 20.2928 4.20713C20.8199 4.73421 21.0834 5.38734 21.0834 6.1665C21.0834 6.93039 20.8199 7.5797 20.2928 8.11442C19.7657 8.64914 19.1126 8.9165 18.3334 8.9165ZM11.0001 6.1665C10.2362 6.1665 9.58689 5.89914 9.05217 5.36442C8.51744 4.8297 8.25008 4.18039 8.25008 3.4165C8.25008 2.63734 8.51744 1.98421 9.05217 1.45713C9.58689 0.930046 10.2362 0.666504 11.0001 0.666504C11.7792 0.666504 12.4324 0.930046 12.9595 1.45713C13.4865 1.98421 13.7501 2.63734 13.7501 3.4165C13.7501 4.18039 13.4865 4.8297 12.9595 5.36442C12.4324 5.89914 11.7792 6.1665 11.0001 6.1665Z" fill="#3B87DD"/>
</svg>
