<svg width="20" height="23" viewBox="0 0 20 23" fill="none" xmlns="http://www.w3.org/2000/svg">
<path d="M0 19.75V8.5C0 8.10417 0.0885417 7.72917 0.265625 7.375C0.442708 7.02083 0.6875 6.72917 1 6.5L8.5 0.875C8.9375 0.541667 9.4375 0.375 10 0.375C10.5625 0.375 11.0625 0.541667 11.5 0.875L19 6.5C19.3125 6.72917 19.5573 7.02083 19.7344 7.375C19.9115 7.72917 20 8.10417 20 8.5V19.75C20 20.4375 19.7552 21.026 19.2656 21.5156C18.776 22.0052 18.1875 22.25 17.5 22.25H13.75C13.3958 22.25 13.099 22.1302 12.8594 21.8906C12.6198 21.651 12.5 21.3542 12.5 21V14.75C12.5 14.3958 12.3802 14.099 12.1406 13.8594C11.901 13.6198 11.6042 13.5 11.25 13.5H8.75C8.39583 13.5 8.09896 13.6198 7.85938 13.8594C7.61979 14.099 7.5 14.3958 7.5 14.75V21C7.5 21.3542 7.38021 21.651 7.14062 21.8906C6.90104 22.1302 6.60417 22.25 6.25 22.25H2.5C1.8125 22.25 1.22396 22.0052 0.734375 21.5156C0.244792 21.026 0 20.4375 0 19.75Z" fill="white"/>
</svg>
