<svg width="1291" height="485" viewBox="0 0 1291 485" fill="none" xmlns="http://www.w3.org/2000/svg">
<path fill-rule="evenodd" clip-rule="evenodd" d="M997.302 0H0V120.011C0 101.77 12.2642 86.9822 27.3906 86.9822L942.522 86.9775C956.725 86.9775 968.402 73.9419 969.776 57.251H969.912V33.0295C969.912 14.7881 982.175 0 997.302 0ZM1263.61 0C1278.74 0 1291 14.7881 1291 33.0295V357.411C1291 375.652 1278.74 390.44 1263.61 390.44L868.411 390.261C853.437 390.261 841.268 404.752 841.024 422.74C841.022 422.57 841.021 435.615 841.021 437.308V437.487V451.8C841.021 470.041 829.127 485 814 485H1291V0H1263.61ZM26.6094 485C11.8442 484.501 0 469.91 0 451.984V485H26.6094Z" fill="#FFFEF9"/>
</svg>
