<svg width="1291" height="484" viewBox="0 0 1291 484" fill="none" xmlns="http://www.w3.org/2000/svg">
<path fill-rule="evenodd" clip-rule="evenodd" d="M997.304 0H0V484H26.6122C11.8464 483.502 0.0020752 468.91 0.0020752 450.984V120.011C0.0020752 101.77 12.266 86.9821 27.3927 86.9821L942.524 86.9775C956.726 86.9775 968.404 73.9418 969.778 57.251H969.913V33.0294C969.913 14.788 982.177 0 997.304 0ZM1263.61 0C1278.74 0 1291 14.788 1291 33.0294V0H1263.61ZM1291 356.411C1291 374.652 1278.74 389.44 1263.61 389.44L868.413 389.261C853.439 389.261 841.27 403.752 841.026 421.74C841.024 421.571 841.023 434.454 841.023 436.276V436.487V450.8C841.023 469.041 828.761 483.829 813.634 483.829L83.6273 484H1291V356.411Z" fill="#FFFEF9"/>
</svg>
