<svg width="35" height="35" viewBox="0 0 35 35" fill="none" xmlns="http://www.w3.org/2000/svg">
<path d="M17 13C16.45 13 16 13.45 16 14V17H13C12.45 17 12 17.45 12 18C12 18.55 12.45 19 13 19H16V22C16 22.55 16.45 23 17 23C17.55 23 18 22.55 18 22V19H21C21.55 19 22 18.55 22 18C22 17.45 21.55 17 21 17H18V14C18 13.45 17.55 13 17 13ZM17 8C11.48 8 7 12.48 7 18C7 23.52 11.48 28 17 28C22.52 28 27 23.52 27 18C27 12.48 22.52 8 17 8ZM17 26C12.59 26 9 22.41 9 18C9 13.59 12.59 10 17 10C21.41 10 25 13.59 25 18C25 22.41 21.41 26 17 26Z" fill="#323232"/>
</svg>
