<svg width="190" height="127" viewBox="0 0 190 127" fill="none" xmlns="http://www.w3.org/2000/svg">
    <path d="M187.107 94.1924L167.935 94.1924L111.695 94.1924L30.5647 94.1924C13.6843 94.1924 -1.11943e-05 80.5081 -9.71861e-06 63.6277V63.6277C-8.24288e-06 46.7473 13.6843 33.063 30.5647 33.063L124.501 33.063L155.804 33.063L155.952 33.0627L187.107 33.063L187.107 94.1924Z" fill="#000"/>
    <path d="M187.107 94.1924L167.935 94.1924C182.563 95.1958 186.958 100.3 186.958 127L190 110.926L187.107 94.1924Z" fill="#000"/>
    <path d="M155.952 33.0627L187.107 33.063L190 17.4884L187.107 1.50058e-05C187.107 32.9963 180.394 33.0106 155.952 33.0627Z" fill="#000"/>
</svg>
