<svg width="333" height="147" viewBox="0 0 333 147" fill="none" xmlns="http://www.w3.org/2000/svg">
<path d="M299.32 23.7259L294.994 12.2064C290.304 -0.285708 274.432 -3.7296 265.085 5.72516L239.614 31.4906L239.551 31.4667L232.316 12.2064C227.627 -0.285708 211.755 -3.7296 202.408 5.72516L176.936 31.4906L176.873 31.4667L169.639 12.2064C164.949 -0.285708 149.077 -3.7296 139.73 5.72516L114.259 31.4906L114.196 31.4667L106.961 12.2064C102.272 -0.285708 86.3995 -3.7296 77.0526 5.72516L5.34351 78.2861C-4.40527 88.1474 -0.204703 104.968 12.996 108.962L22.5241 111.848C28.3954 113.626 32.99 118.274 34.7475 124.213L37.6004 133.851C41.5567 147.212 58.1777 151.453 67.9265 141.592L94.5406 114.67L94.6036 114.686L100.27 133.843C104.226 147.204 120.847 151.445 130.596 141.584L157.202 114.662L157.265 114.678L162.932 133.835C166.888 147.196 183.509 151.437 193.258 141.576L219.872 114.654L219.935 114.67L225.601 133.827C229.558 147.188 246.179 151.429 255.927 141.568L327.66 69.0067C336.999 59.5599 333.603 43.5044 321.253 38.7531L309.865 34.3765C305.002 32.503 301.156 28.6207 299.304 23.694L299.32 23.7259Z" fill="#FE8686"/>
</svg>
