<svg width="41" height="41" viewBox="0 0 41 41" fill="none" xmlns="http://www.w3.org/2000/svg">
<path d="M30.6081 28.1341C29.6088 29.5157 27.2107 31.4893 29.2092 33.0682C33.0062 34.2524 36.8033 32.6735 40.2006 30.8972H41C40.8002 32.8709 39.2014 34.2524 37.8025 35.4366C31.6073 40.7654 22.8141 41.7523 15.6197 38.1997C12.2223 36.4234 9.42451 33.6603 7.62591 30.3051C5.62746 26.3578 5.42762 21.6211 7.02637 17.4764C8.22544 14.7133 10.024 12.345 12.0225 9.9766C12.622 9.18714 13.0217 8.20032 12.2223 7.60823C8.42529 5.43722 4.22855 7.60823 0.831185 9.38451C0.63134 9.38451 -0.168041 9.38451 0.031804 9.18714C2.03025 4.05567 7.62591 1.48994 13.0217 0.30575C17.2185 -0.483707 21.4152 0.30575 25.2123 2.08203C29.409 4.05567 32.4067 7.41086 34.0054 11.5555C36.2037 17.0817 34.8048 23.7921 30.6081 28.1341Z" fill="#FF6D6D"/>
</svg>
