<svg width="137" height="178" viewBox="0 0 137 178" fill="none" xmlns="http://www.w3.org/2000/svg">
<path d="M73.8189 40.9096C80.2533 41.3439 91.3919 45.0774 92.4482 35.502C88.632 20.9499 75.9543 11.9385 63.4451 4.60463L61.8421 2.04094C68.5725 -1.27576 76.2092 1.08129 82.8122 3.19317C112.325 12.3762 133.122 38.598 136.155 68.795C137.271 83.2525 134.02 97.7662 126.866 110.262C118.214 124.587 103.424 134.726 86.9255 137.91C75.6596 139.605 64.4573 138.586 52.8543 136.926C49.1202 136.586 45.1539 137.283 44.858 141.034C45.5093 157.565 60.8874 166.671 73.3967 174.005C73.7974 174.646 75.4004 177.209 74.3667 176.964C53.9021 180.845 34.4529 168.044 19.8352 153.113C8.88787 141.237 3.00427 126.195 1.08698 110.455C-0.998806 93.0382 3.7506 76.6964 13.837 63.258C27.152 45.1265 51.4781 36.157 73.8189 40.9096Z" fill="#255894"/>
</svg>
