<svg width="175" height="172" viewBox="0 0 175 172" fill="none" xmlns="http://www.w3.org/2000/svg">
<path d="M130.644 120.086C126.379 125.983 116.143 134.407 124.673 141.146C140.88 146.2 157.087 139.461 171.588 131.88H175C174.147 140.304 167.323 146.2 161.352 151.255C134.909 174 97.3773 178.212 66.6695 163.049C52.1685 155.467 40.2266 143.673 32.5496 129.352C24.0197 112.504 23.1667 92.2863 29.9906 74.5957C35.1086 62.802 42.7856 52.6931 51.3155 42.5842C53.8745 39.2146 55.5805 35.0025 52.1685 32.4753C35.9616 23.2088 18.0487 32.4753 3.54774 40.057C2.69475 40.057 -0.717255 40.057 0.135742 39.2146C8.66571 17.3119 32.5496 6.36064 55.5805 1.30618C73.4934 -2.06345 91.4064 1.30618 107.613 8.88786C125.526 17.312 138.321 31.6329 145.145 49.3235C154.528 72.9109 148.557 101.553 130.644 120.086Z" fill="#8BB4F9"/>
</svg>
