<svg width="41" height="41" viewBox="0 0 41 41" fill="none" xmlns="http://www.w3.org/2000/svg">
<path d="M-5.04641e-07 19.1008H15.2784L2.04603 11.4605L3.4463 9.03836L16.6787 16.6787L9.03836 3.44404L11.4605 2.04603L19.1009 15.2784V0H21.8991V15.2784L29.5395 2.04603L31.9616 3.44404L24.3213 16.6787L37.5537 9.03836L38.954 11.4605L25.7216 19.1008H41V21.8992H25.7216L38.954 29.5395L37.5537 31.9616L24.3213 24.3213L31.9616 37.5537L29.5395 38.954L21.8991 25.7216V41H19.1009V25.7216L11.4605 38.954L9.03836 37.5537L16.6787 24.3213L3.4463 31.9616L2.04603 29.5395L15.2784 21.8992H-5.04641e-07V19.1008Z" fill="#255894"/>
</svg>
