<svg width="362" height="362" viewBox="0 0 362 362" fill="none" xmlns="http://www.w3.org/2000/svg">
<path d="M8.93859 118.891L140.032 156.523L45.3125 58.3744L63.2931 41.0405L158.013 139.189L125.054 6.81284L149.28 0.783352L182.245 133.14L219.876 2.04615L243.886 8.9384L206.255 140.032L304.403 45.3124L321.743 63.2736L223.589 158.013L355.945 125.048L361.994 149.28L229.638 182.244L360.731 219.876L353.839 243.886L222.745 206.255L317.465 304.403L299.484 321.737L204.765 223.589L237.73 355.945L213.498 361.994L180.533 229.638L142.902 360.731L118.892 353.839L156.523 222.745L58.3746 317.465L41.0406 299.484L139.189 204.765L6.83241 237.729L0.783448 213.498L133.14 180.533L2.04628 142.902L8.93859 118.891Z" fill="#8BB4F9"/>
</svg>
