<svg width="33" height="33" viewBox="0 0 33 33" fill="none" xmlns="http://www.w3.org/2000/svg">
<rect width="33" height="33" rx="16.5" fill="#3C9DDD"/>
<path d="M17.0013 26C18.1614 26 19.1107 25.0769 19.1107 23.9487H14.8919C14.8919 25.0769 15.8306 26 17.0013 26ZM23.3294 19.8462V14.7179C23.3294 11.5692 21.5997 8.93333 18.5833 8.2359V7.53846C18.5833 6.68718 17.8767 6 17.0013 6C16.1259 6 15.4193 6.68718 15.4193 7.53846V8.2359C12.3924 8.93333 10.6732 11.559 10.6732 14.7179V19.8462L9.31269 21.1692C8.64824 21.8154 9.1123 22.9231 10.051 22.9231H23.9411C24.8798 22.9231 25.3544 21.8154 24.6899 21.1692L23.3294 19.8462Z" fill="white"/>
</svg>
