<svg width="20" height="21" viewBox="0 0 20 21" fill="none" xmlns="http://www.w3.org/2000/svg">
<path d="M10 0.179932C15.5228 0.179932 20 4.65708 20 10.1799C20 15.7028 15.5228 20.1799 10 20.1799C4.47715 20.1799 0 15.7028 0 10.1799C0 4.65708 4.47715 0.179932 10 0.179932ZM10 2.17993C5.58172 2.17993 2 5.76165 2 10.1799C2 14.5982 5.58172 18.1799 10 18.1799C14.4183 18.1799 18 14.5982 18 10.1799C18 5.76165 14.4183 2.17993 10 2.17993ZM10.1426 4.67993C10.8114 4.67993 11.3562 5.22499 11.3564 5.8938V8.96606H14.4287C15.0975 8.96629 15.6426 9.51107 15.6426 10.1799C15.6426 10.8488 15.0975 11.3936 14.4287 11.3938H11.3564V14.4661C11.3562 15.1349 10.8114 15.6799 10.1426 15.6799C9.47383 15.6798 8.92894 15.1348 8.92871 14.4661V11.3938H5.85645C5.18775 11.3934 4.64258 10.8487 4.64258 10.1799C4.64258 9.51115 5.18775 8.96642 5.85645 8.96606H8.92871V5.8938C8.92894 5.22507 9.47383 4.68006 10.1426 4.67993Z" fill="#3B87DD"/>
</svg>
